<svg width="80" height="65" viewBox="0 0 80 65" fill="none" xmlns="http://www.w3.org/2000/svg">
<path d="M18.5541 3.56503V34.8825L26.1119 28.4006C26.3205 28.1799 26.572 28.0041 26.8509 27.8839C27.1297 27.7638 27.4302 27.7018 27.7339 27.7018C28.0376 27.7018 28.3381 27.7638 28.6169 27.8839C28.8958 28.0041 29.1473 28.1799 29.3559 28.4006L34.677 33.7217L46.9567 21.456C47.1653 21.2353 47.4167 21.0595 47.6956 20.9394C47.9745 20.8192 48.275 20.7572 48.5786 20.7572C48.8823 20.7572 49.1828 20.8192 49.4617 20.9394C49.7406 21.0595 49.992 21.2353 50.2006 21.456L62.3835 32.567V3.56503H18.5541ZM63.4545 37.8342C63.288 37.7471 63.1332 37.6392 62.9938 37.5131L48.5731 24.1734L36.3074 37.5131C36.0984 37.7331 35.8468 37.9082 35.568 38.0278C35.2891 38.1475 34.9889 38.2092 34.6855 38.2092C34.382 38.2092 34.0818 38.1475 33.803 38.0278C33.5241 37.9082 33.2725 37.7331 33.0635 37.5131L27.7324 31.122L19.4894 40.436H63.4545V37.8342ZM19.6251 44C18.3981 43.9955 17.2228 43.5054 16.3561 42.6369C15.4894 41.7683 15.0018 40.592 15 39.365V4.63604C15.0016 3.40887 15.489 2.23225 16.3557 1.36348C17.2224 0.494706 18.3979 0.00448061 19.6251 0H61.3085C62.5364 0.00342803 63.7129 0.493189 64.5805 1.36207C65.448 2.23096 65.936 3.40818 65.9376 4.63604V39.365C65.936 40.5921 65.4486 41.7688 64.5819 42.6375C63.7152 43.5063 62.5397 43.9965 61.3125 44.001L19.6251 44Z" fill="#C9C9C9"/>
<path d="M1.19141 60.0146C0.957031 60.0146 0.839844 59.9512 0.839844 59.8242V54.0967C0.839844 53.9665 0.957031 53.9014 1.19141 53.9014H1.25977C1.49089 53.9014 1.60645 53.9665 1.60645 54.0967V59.8242C1.60645 59.9512 1.49089 60.0146 1.25977 60.0146H1.19141ZM7.79785 55.4102C8.15918 55.4102 8.47656 55.5127 8.75 55.7178C9.02344 55.9229 9.16016 56.2874 9.16016 56.8115V59.8242C9.16016 59.8893 9.13249 59.9382 9.07715 59.9707C9.02181 60 8.93392 60.0146 8.81348 60.0146H8.78418C8.66048 60.0146 8.57096 60 8.51562 59.9707C8.46029 59.9382 8.43262 59.8893 8.43262 59.8242V56.8848C8.43262 56.6211 8.361 56.4144 8.21777 56.2646C8.0778 56.1149 7.87109 56.04 7.59766 56.04C7.36979 56.04 7.16309 56.1068 6.97754 56.2402C6.79525 56.3704 6.64714 56.5072 6.5332 56.6504C6.53971 56.7285 6.54297 56.7871 6.54297 56.8262V59.8242C6.54297 59.9512 6.42578 60.0146 6.19141 60.0146H6.15723C5.92611 60.0146 5.81055 59.9512 5.81055 59.8242V56.8848C5.81055 56.6211 5.73893 56.4144 5.5957 56.2646C5.45573 56.1149 5.24902 56.04 4.97559 56.04C4.78678 56.04 4.61426 56.0856 4.45801 56.1768C4.30176 56.2646 4.17155 56.3607 4.06738 56.4648C3.96647 56.569 3.91602 56.6276 3.91602 56.6406V59.8242C3.91602 59.8893 3.88835 59.9382 3.83301 59.9707C3.78092 60 3.69466 60.0146 3.57422 60.0146H3.53516C3.41471 60.0146 3.32682 60 3.27148 59.9707C3.2194 59.9382 3.19336 59.8893 3.19336 59.8242V56.7773C3.19336 56.3997 3.17546 56.1279 3.13965 55.9619C3.10384 55.7926 3.08594 55.6999 3.08594 55.6836C3.08594 55.612 3.13965 55.5615 3.24707 55.5322C3.35775 55.4997 3.46029 55.4834 3.55469 55.4834C3.63607 55.4834 3.69629 55.5273 3.73535 55.6152C3.77441 55.7031 3.80208 55.7926 3.81836 55.8838C3.83789 55.9749 3.85091 56.0335 3.85742 56.0596C4.01693 55.874 4.21224 55.7194 4.44336 55.5957C4.67448 55.472 4.91862 55.4102 5.17578 55.4102C5.43945 55.4102 5.68522 55.4639 5.91309 55.5713C6.14095 55.6755 6.30859 55.861 6.41602 56.1279C6.59505 55.9163 6.80501 55.7438 7.0459 55.6104C7.28678 55.4769 7.53743 55.4102 7.79785 55.4102ZM11.7236 60.0488C11.2809 60.0488 10.9229 59.9398 10.6494 59.7217C10.376 59.5036 10.2393 59.1797 10.2393 58.75C10.2393 58.2975 10.3776 57.9574 10.6543 57.7295C10.931 57.4984 11.2679 57.3503 11.665 57.2852C12.0654 57.2168 12.5505 57.1777 13.1201 57.168V56.7578C13.1201 56.5397 13.0452 56.3656 12.8955 56.2354C12.749 56.1019 12.5065 56.0352 12.168 56.0352C11.9108 56.0352 11.6846 56.0661 11.4893 56.1279C11.2972 56.1865 11.1165 56.2581 10.9473 56.3428C10.8757 56.3786 10.8317 56.3965 10.8154 56.3965C10.7764 56.3965 10.7324 56.3688 10.6836 56.3135C10.638 56.2549 10.5973 56.1898 10.5615 56.1182C10.529 56.0465 10.5127 55.9945 10.5127 55.9619C10.5127 55.887 10.5892 55.8057 10.7422 55.7178C10.8984 55.6299 11.1019 55.5566 11.3525 55.498C11.6032 55.4395 11.8652 55.4102 12.1387 55.4102C12.6823 55.4102 13.1038 55.529 13.4033 55.7666C13.7028 56.0042 13.8525 56.3379 13.8525 56.7676V58.7158C13.8525 59.0934 13.8688 59.3669 13.9014 59.5361C13.9372 59.7021 13.9551 59.7933 13.9551 59.8096C13.9551 59.8812 13.8997 59.9333 13.7891 59.9658C13.6816 59.9951 13.5807 60.0098 13.4863 60.0098C13.4082 60.0098 13.3496 59.9658 13.3105 59.8779C13.2747 59.79 13.2389 59.6631 13.2031 59.4971L13.1836 59.3994C13.0046 59.598 12.793 59.7559 12.5488 59.873C12.3079 59.9902 12.0329 60.0488 11.7236 60.0488ZM11.7627 59.4189C12.0492 59.4189 12.2933 59.3669 12.4951 59.2627C12.6969 59.1585 12.9053 59.0104 13.1201 58.8184V57.793C12.6904 57.7962 12.3372 57.8141 12.0605 57.8467C11.7839 57.8792 11.5413 57.9622 11.333 58.0957C11.1247 58.2259 11.0205 58.4294 11.0205 58.7061C11.0205 58.9372 11.0824 59.1146 11.2061 59.2383C11.333 59.3587 11.5186 59.4189 11.7627 59.4189ZM16.748 61.8408C16.1947 61.8408 15.7568 61.7546 15.4346 61.582C15.1123 61.4095 14.9512 61.1377 14.9512 60.7666C14.9512 60.5127 15.0244 60.2913 15.1709 60.1025C15.3174 59.9137 15.5078 59.7721 15.7422 59.6777L15.752 59.6582C15.638 59.5703 15.5501 59.4694 15.4883 59.3555C15.4297 59.2415 15.4004 59.1064 15.4004 58.9502C15.4004 58.5726 15.5632 58.2699 15.8887 58.042C15.6445 57.9248 15.459 57.7604 15.332 57.5488C15.2051 57.334 15.1416 57.0931 15.1416 56.8262C15.1416 56.5592 15.2067 56.3184 15.3369 56.1035C15.4704 55.8887 15.6657 55.7194 15.9229 55.5957C16.18 55.472 16.4893 55.4102 16.8506 55.4102C17.0426 55.4102 17.2135 55.4264 17.3633 55.459H18.9404C19.0023 55.459 19.0462 55.4801 19.0723 55.5225C19.1016 55.5615 19.1162 55.6266 19.1162 55.7178V55.8252C19.1162 55.9163 19.1016 55.9831 19.0723 56.0254C19.0462 56.0645 19.0023 56.084 18.9404 56.084C18.7223 56.084 18.5205 56.0758 18.335 56.0596L18.3252 56.0742C18.4001 56.1784 18.4554 56.2956 18.4912 56.4258C18.5303 56.5527 18.5498 56.6862 18.5498 56.8262C18.5498 57.0931 18.4831 57.334 18.3496 57.5488C18.2194 57.7637 18.0257 57.9329 17.7686 58.0566C17.5146 58.1803 17.2054 58.2422 16.8408 58.2422C16.5674 58.252 16.3607 58.3024 16.2207 58.3936C16.084 58.4847 16.0156 58.6344 16.0156 58.8428C16.0156 58.9958 16.0645 59.113 16.1621 59.1943C16.263 59.2757 16.3883 59.3327 16.5381 59.3652C16.6878 59.3978 16.8962 59.4287 17.1631 59.458L17.417 59.4873C17.6872 59.5231 17.9134 59.5719 18.0957 59.6338C18.278 59.6956 18.4277 59.7982 18.5449 59.9414C18.6654 60.0846 18.7256 60.2816 18.7256 60.5322C18.7256 60.9521 18.5579 61.2744 18.2227 61.499C17.8874 61.7269 17.3958 61.8408 16.748 61.8408ZM16.8408 57.666C17.1598 57.666 17.4137 57.6009 17.6025 57.4707C17.7913 57.3405 17.8857 57.1273 17.8857 56.8311C17.8857 56.2712 17.5374 55.9912 16.8408 55.9912C16.154 55.9912 15.8105 56.2712 15.8105 56.8311C15.8105 57.1273 15.9033 57.3405 16.0889 57.4707C16.2777 57.6009 16.5283 57.666 16.8408 57.666ZM16.8408 61.25C17.2445 61.25 17.5439 61.1963 17.7393 61.0889C17.9346 60.9847 18.0322 60.8252 18.0322 60.6104C18.0322 60.4704 17.9801 60.3613 17.876 60.2832C17.7718 60.2083 17.6432 60.1546 17.4902 60.1221C17.3405 60.0928 17.1419 60.0651 16.8945 60.0391C16.7253 60.0195 16.5853 60.0016 16.4746 59.9854C16.3672 59.9691 16.2679 59.9463 16.1768 59.917C15.7926 60.0798 15.6006 60.3158 15.6006 60.625C15.6006 61.0417 16.014 61.25 16.8408 61.25ZM21.9043 60.0488C21.1849 60.0488 20.6494 59.8617 20.2979 59.4873C19.9495 59.1097 19.7754 58.5335 19.7754 57.7588C19.7754 56.9906 19.9463 56.4079 20.2881 56.0107C20.6299 55.6104 21.1328 55.4102 21.7969 55.4102C22.3893 55.4102 22.8353 55.6022 23.1348 55.9863C23.4375 56.3704 23.5889 56.9336 23.5889 57.6758C23.5889 57.7083 23.571 57.7539 23.5352 57.8125C23.5026 57.8678 23.4619 57.9183 23.4131 57.9639C23.3675 58.0062 23.3285 58.0273 23.2959 58.0273H20.5566C20.5924 58.5124 20.7161 58.8672 20.9277 59.0918C21.1426 59.3132 21.4648 59.4238 21.8945 59.4238C22.1354 59.4238 22.3421 59.3945 22.5146 59.3359C22.6904 59.2773 22.8597 59.2057 23.0225 59.1211C23.0387 59.1146 23.0632 59.1032 23.0957 59.0869C23.1283 59.0706 23.151 59.0625 23.1641 59.0625C23.1999 59.0625 23.2406 59.0918 23.2861 59.1504C23.335 59.2057 23.3757 59.2692 23.4082 59.3408C23.444 59.4092 23.4619 59.4596 23.4619 59.4922C23.4619 59.5638 23.3903 59.6436 23.2471 59.7314C23.1038 59.8193 22.9118 59.8942 22.6709 59.9561C22.4333 60.0179 22.1777 60.0488 21.9043 60.0488ZM22.8125 57.4023C22.8125 56.4909 22.4658 56.0352 21.7725 56.0352C21.027 56.0352 20.6217 56.4909 20.5566 57.4023H22.8125ZM29.3311 55.4102C29.6924 55.4102 30.0098 55.5127 30.2832 55.7178C30.5566 55.9229 30.6934 56.2874 30.6934 56.8115V59.8242C30.6934 59.8893 30.6657 59.9382 30.6104 59.9707C30.555 60 30.4671 60.0146 30.3467 60.0146H30.3174C30.1937 60.0146 30.1042 60 30.0488 59.9707C29.9935 59.9382 29.9658 59.8893 29.9658 59.8242V56.8848C29.9658 56.6211 29.8942 56.4144 29.751 56.2646C29.611 56.1149 29.4043 56.04 29.1309 56.04C28.903 56.04 28.6963 56.1068 28.5107 56.2402C28.3285 56.3704 28.1803 56.5072 28.0664 56.6504C28.0729 56.7285 28.0762 56.7871 28.0762 56.8262V59.8242C28.0762 59.9512 27.959 60.0146 27.7246 60.0146H27.6904C27.4593 60.0146 27.3438 59.9512 27.3438 59.8242V56.8848C27.3438 56.6211 27.2721 56.4144 27.1289 56.2646C26.9889 56.1149 26.7822 56.04 26.5088 56.04C26.32 56.04 26.1475 56.0856 25.9912 56.1768C25.835 56.2646 25.7048 56.3607 25.6006 56.4648C25.4997 56.569 25.4492 56.6276 25.4492 56.6406V59.8242C25.4492 59.8893 25.4215 59.9382 25.3662 59.9707C25.3141 60 25.2279 60.0146 25.1074 60.0146H25.0684C24.9479 60.0146 24.86 60 24.8047 59.9707C24.7526 59.9382 24.7266 59.8893 24.7266 59.8242V56.7773C24.7266 56.3997 24.7087 56.1279 24.6729 55.9619C24.637 55.7926 24.6191 55.6999 24.6191 55.6836C24.6191 55.612 24.6729 55.5615 24.7803 55.5322C24.891 55.4997 24.9935 55.4834 25.0879 55.4834C25.1693 55.4834 25.2295 55.5273 25.2686 55.6152C25.3076 55.7031 25.3353 55.7926 25.3516 55.8838C25.3711 55.9749 25.3841 56.0335 25.3906 56.0596C25.5501 55.874 25.7454 55.7194 25.9766 55.5957C26.2077 55.472 26.4518 55.4102 26.709 55.4102C26.9727 55.4102 27.2184 55.4639 27.4463 55.5713C27.6742 55.6755 27.8418 55.861 27.9492 56.1279C28.1283 55.9163 28.3382 55.7438 28.5791 55.6104C28.82 55.4769 29.0706 55.4102 29.3311 55.4102ZM34.541 54.3652C34.3099 54.3652 34.1943 54.3018 34.1943 54.1748V53.6621C34.1943 53.5352 34.3099 53.4717 34.541 53.4717H34.6436C34.8779 53.4717 34.9951 53.5352 34.9951 53.6621V54.1748C34.9951 54.3018 34.8779 54.3652 34.6436 54.3652H34.541ZM34.5752 60.0146C34.3441 60.0146 34.2285 59.9512 34.2285 59.8242V55.6348C34.2285 55.5078 34.3441 55.4443 34.5752 55.4443H34.6094C34.8438 55.4443 34.9609 55.5078 34.9609 55.6348V59.8242C34.9609 59.9512 34.8438 60.0146 34.6094 60.0146H34.5752ZM36.8408 60.0146C36.7171 60.0146 36.6276 60 36.5723 59.9707C36.5169 59.9382 36.4893 59.8893 36.4893 59.8242V56.7773C36.4893 56.3997 36.4714 56.1279 36.4355 55.9619C36.3997 55.7926 36.3818 55.6999 36.3818 55.6836C36.3818 55.612 36.4355 55.5615 36.543 55.5322C36.6536 55.4997 36.7578 55.4834 36.8555 55.4834C36.9368 55.4834 36.9971 55.5273 37.0361 55.6152C37.0752 55.7031 37.1029 55.7926 37.1191 55.8838C37.1387 55.9749 37.1517 56.0335 37.1582 56.0596C37.3405 55.8545 37.5505 55.695 37.7881 55.5811C38.029 55.4671 38.2715 55.4102 38.5156 55.4102C38.9583 55.4102 39.3034 55.5355 39.5508 55.7861C39.8014 56.0335 39.9268 56.3753 39.9268 56.8115V59.8242C39.9268 59.8893 39.8991 59.9382 39.8438 59.9707C39.7884 60 39.7005 60.0146 39.5801 60.0146H39.541C39.4238 60.0146 39.3376 60 39.2822 59.9707C39.2269 59.9382 39.1992 59.8893 39.1992 59.8242V56.8848C39.1992 56.6178 39.1211 56.4111 38.9648 56.2646C38.8118 56.1149 38.5954 56.04 38.3154 56.04C38.1201 56.04 37.9232 56.0954 37.7246 56.2061C37.5293 56.3135 37.36 56.4616 37.2168 56.6504V59.8242C37.2168 59.8893 37.1891 59.9382 37.1338 59.9707C37.0785 60 36.9922 60.0146 36.875 60.0146H36.8408ZM42.71 60.0488C42.3714 60.0488 42.0752 59.9512 41.8213 59.7559C41.5674 59.5573 41.3704 59.2822 41.2305 58.9307C41.0938 58.5791 41.0254 58.1803 41.0254 57.7344C41.0254 57.2428 41.0986 56.8229 41.2451 56.4746C41.3949 56.123 41.6032 55.8577 41.8701 55.6787C42.137 55.4997 42.4447 55.4102 42.793 55.4102C43.0436 55.4102 43.265 55.4476 43.457 55.5225C43.6523 55.5973 43.8444 55.7064 44.0332 55.8496V53.6621C44.0332 53.5352 44.1471 53.4717 44.375 53.4717H44.4141C44.6452 53.4717 44.7607 53.5352 44.7607 53.6621V58.7158C44.7607 59.0934 44.7786 59.3669 44.8145 59.5361C44.8503 59.7021 44.8682 59.7933 44.8682 59.8096C44.8682 59.8812 44.8128 59.9333 44.7021 59.9658C44.5947 59.9951 44.4938 60.0098 44.3994 60.0098C44.3343 60.0098 44.2822 59.9788 44.2432 59.917C44.2041 59.8551 44.1764 59.7933 44.1602 59.7314C44.1471 59.6663 44.1243 59.5557 44.0918 59.3994C43.6784 59.8324 43.2178 60.0488 42.71 60.0488ZM42.8613 59.4189C43.0534 59.4189 43.252 59.3669 43.457 59.2627C43.6654 59.1585 43.8574 59.0104 44.0332 58.8184V56.4404C43.7207 56.18 43.3643 56.0498 42.9639 56.0498C42.5765 56.0596 42.2835 56.2012 42.085 56.4746C41.8896 56.748 41.792 57.1452 41.792 57.666C41.792 58.2259 41.8831 58.6589 42.0654 58.9648C42.251 59.2676 42.5163 59.4189 42.8613 59.4189ZM46.5918 54.3652C46.3607 54.3652 46.2451 54.3018 46.2451 54.1748V53.6621C46.2451 53.5352 46.3607 53.4717 46.5918 53.4717H46.6943C46.9287 53.4717 47.0459 53.5352 47.0459 53.6621V54.1748C47.0459 54.3018 46.9287 54.3652 46.6943 54.3652H46.5918ZM46.626 60.0146C46.3949 60.0146 46.2793 59.9512 46.2793 59.8242V55.6348C46.2793 55.5078 46.3949 55.4443 46.626 55.4443H46.6602C46.8945 55.4443 47.0117 55.5078 47.0117 55.6348V59.8242C47.0117 59.9512 46.8945 60.0146 46.6602 60.0146H46.626ZM49.4775 60.083C49.2334 60.083 49.0055 60.0521 48.7939 59.9902C48.5824 59.9284 48.4131 59.8535 48.2861 59.7656C48.1624 59.6745 48.1006 59.5947 48.1006 59.5264C48.1006 59.4938 48.1169 59.4417 48.1494 59.3701C48.1852 59.2985 48.2259 59.235 48.2715 59.1797C48.3203 59.1211 48.3643 59.0918 48.4033 59.0918C48.4131 59.0918 48.4424 59.1081 48.4912 59.1406C48.6214 59.2253 48.7581 59.2969 48.9014 59.3555C49.0479 59.4141 49.222 59.4434 49.4238 59.4434C49.9902 59.4434 50.2734 59.209 50.2734 58.7402C50.2734 58.6068 50.2458 58.4945 50.1904 58.4033C50.1383 58.3122 50.0488 58.2324 49.9219 58.1641C49.7982 58.0924 49.6273 58.0241 49.4092 57.959C49.0967 57.8678 48.8525 57.7637 48.6768 57.6465C48.5042 57.5293 48.3822 57.3926 48.3105 57.2363C48.2389 57.0768 48.2031 56.8848 48.2031 56.6602C48.2031 56.4193 48.2633 56.2028 48.3838 56.0107C48.5075 55.8187 48.6784 55.6689 48.8965 55.5615C49.1178 55.4541 49.3669 55.4004 49.6436 55.4004C49.8356 55.4004 50.0195 55.4183 50.1953 55.4541C50.3743 55.4899 50.5176 55.5371 50.625 55.5957C50.7357 55.651 50.791 55.7096 50.791 55.7715C50.791 55.8171 50.7747 55.8789 50.7422 55.957C50.7129 56.0319 50.6755 56.0986 50.6299 56.1572C50.5843 56.2126 50.5436 56.2402 50.5078 56.2402C50.5013 56.2402 50.4606 56.2207 50.3857 56.1816C50.3109 56.1393 50.2148 56.1019 50.0977 56.0693C49.9837 56.0335 49.8568 56.0156 49.7168 56.0156C49.4954 56.0156 49.3115 56.0661 49.165 56.167C49.0218 56.2646 48.9502 56.3965 48.9502 56.5625C48.9502 56.7578 49.0023 56.9141 49.1064 57.0312C49.2106 57.1484 49.3831 57.2445 49.624 57.3193C49.9951 57.4333 50.2783 57.5472 50.4736 57.6611C50.6689 57.7751 50.8073 57.915 50.8887 58.0811C50.9733 58.2438 51.0156 58.4587 51.0156 58.7256C51.0156 58.9795 50.9473 59.2106 50.8105 59.4189C50.6738 59.624 50.4883 59.7868 50.2539 59.9072C50.0195 60.0244 49.7607 60.083 49.4775 60.083ZM52.4756 61.8066C52.2412 61.8066 52.124 61.7432 52.124 61.6162V56.7773C52.124 56.3997 52.1061 56.1279 52.0703 55.9619C52.0345 55.7926 52.0166 55.6999 52.0166 55.6836C52.0166 55.612 52.0703 55.5615 52.1777 55.5322C52.2884 55.4997 52.3926 55.4834 52.4902 55.4834C52.5716 55.4834 52.6318 55.5273 52.6709 55.6152C52.71 55.7031 52.7376 55.7926 52.7539 55.8838C52.7734 55.9749 52.7865 56.0335 52.793 56.0596C53.2064 55.6266 53.667 55.4102 54.1748 55.4102C54.5231 55.4102 54.8242 55.5094 55.0781 55.708C55.332 55.9066 55.5257 56.1816 55.6592 56.5332C55.7926 56.8848 55.8594 57.2852 55.8594 57.7344C55.8594 58.2227 55.7845 58.641 55.6348 58.9893C55.4883 59.3376 55.2816 59.6012 55.0146 59.7803C54.7477 59.9593 54.4401 60.0488 54.0918 60.0488C53.8411 60.0488 53.6182 60.0114 53.4229 59.9365C53.2308 59.8617 53.0404 59.7526 52.8516 59.6094V61.6162C52.8516 61.7432 52.7376 61.8066 52.5098 61.8066H52.4756ZM53.9258 59.4092C54.3132 59.3994 54.6045 59.2578 54.7998 58.9844C54.9951 58.7109 55.0928 58.3138 55.0928 57.793C55.0928 57.2331 55 56.8018 54.8145 56.499C54.6322 56.193 54.3685 56.04 54.0234 56.04C53.8314 56.04 53.6312 56.0921 53.4229 56.1963C53.2178 56.3005 53.0273 56.4486 52.8516 56.6406V59.0186C53.1706 59.279 53.5286 59.4092 53.9258 59.4092ZM58.8477 60.0488C58.1934 60.0488 57.6937 59.8535 57.3486 59.4629C57.0068 59.069 56.8359 58.4977 56.8359 57.749C56.8359 57.0003 57.0101 56.4242 57.3584 56.0205C57.7067 55.6136 58.2031 55.4102 58.8477 55.4102C59.4857 55.4102 59.974 55.612 60.3125 56.0156C60.651 56.416 60.8203 56.9938 60.8203 57.749C60.8203 58.501 60.6527 59.0723 60.3174 59.4629C59.9854 59.8535 59.4954 60.0488 58.8477 60.0488ZM58.8232 59.4238C59.2464 59.4238 59.5589 59.2871 59.7607 59.0137C59.9626 58.737 60.0635 58.3105 60.0635 57.7344C60.0635 57.1549 59.9626 56.7269 59.7607 56.4502C59.5589 56.1735 59.2464 56.0352 58.8232 56.0352C58.4033 56.0352 58.0941 56.1735 57.8955 56.4502C57.6969 56.7236 57.5977 57.1517 57.5977 57.7344C57.5977 58.3138 57.6953 58.7402 57.8906 59.0137C58.0892 59.2871 58.4001 59.4238 58.8232 59.4238ZM62.3975 60.0146C62.2738 60.0146 62.1842 60 62.1289 59.9707C62.0736 59.9382 62.0459 59.8893 62.0459 59.8242V56.7773C62.0459 56.3997 62.028 56.1279 61.9922 55.9619C61.9564 55.7926 61.9385 55.6999 61.9385 55.6836C61.9385 55.612 61.9922 55.5615 62.0996 55.5322C62.2103 55.4997 62.3145 55.4834 62.4121 55.4834C62.4935 55.4834 62.5537 55.5273 62.5928 55.6152C62.6318 55.7031 62.6595 55.7926 62.6758 55.8838C62.6953 55.9749 62.7083 56.0335 62.7148 56.0596C62.8971 55.8545 63.1071 55.695 63.3447 55.5811C63.5856 55.4671 63.8281 55.4102 64.0723 55.4102C64.515 55.4102 64.86 55.5355 65.1074 55.7861C65.3581 56.0335 65.4834 56.3753 65.4834 56.8115V59.8242C65.4834 59.8893 65.4557 59.9382 65.4004 59.9707C65.3451 60 65.2572 60.0146 65.1367 60.0146H65.0977C64.9805 60.0146 64.8942 60 64.8389 59.9707C64.7835 59.9382 64.7559 59.8893 64.7559 59.8242V56.8848C64.7559 56.6178 64.6777 56.4111 64.5215 56.2646C64.3685 56.1149 64.152 56.04 63.8721 56.04C63.6768 56.04 63.4798 56.0954 63.2812 56.2061C63.0859 56.3135 62.9167 56.4616 62.7734 56.6504V59.8242C62.7734 59.8893 62.7458 59.9382 62.6904 59.9707C62.6351 60 62.5488 60.0146 62.4316 60.0146H62.3975ZM67.2705 60.0146C67.0394 60.0146 66.9238 59.9512 66.9238 59.8242V55.6348C66.9238 55.5078 67.0394 55.4443 67.2705 55.4443H67.3047C67.5391 55.4443 67.6562 55.5078 67.6562 55.6348V59.8242C67.6562 59.9512 67.5391 60.0146 67.3047 60.0146H67.2705ZM67.1387 54.917C67.0052 54.917 66.9385 54.8893 66.9385 54.834C66.9385 54.7949 66.9678 54.7201 67.0264 54.6094C67.085 54.4987 67.2249 54.2513 67.4463 53.8672C67.4919 53.7891 67.557 53.7321 67.6416 53.6963C67.7295 53.6605 67.8434 53.6426 67.9834 53.6426C68.1299 53.6426 68.2357 53.6507 68.3008 53.667C68.3659 53.6833 68.3984 53.7142 68.3984 53.7598C68.3984 53.7891 68.3854 53.8232 68.3594 53.8623C68.3333 53.9014 68.2699 53.9779 68.1689 54.0918C68.0713 54.2057 67.946 54.3506 67.793 54.5264L67.583 54.7656C67.5374 54.8145 67.4756 54.8519 67.3975 54.8779C67.3193 54.904 67.2331 54.917 67.1387 54.917ZM70.3955 60.0146C70.1904 60.0146 70.0732 59.9691 70.0439 59.8779L68.6475 55.7031C68.6279 55.6445 68.6182 55.6071 68.6182 55.5908C68.6182 55.5452 68.6491 55.5094 68.7109 55.4834C68.7728 55.4574 68.8672 55.4443 68.9941 55.4443H69.0381C69.2399 55.4443 69.3555 55.4899 69.3848 55.5811L70.2686 58.3496C70.3402 58.5645 70.4232 58.8574 70.5176 59.2285L70.5713 59.4336H70.6104L70.6689 59.1748C70.7406 58.833 70.8073 58.5645 70.8691 58.3691L71.7627 55.5811C71.792 55.4899 71.9108 55.4443 72.1191 55.4443H72.1436C72.3617 55.4443 72.4707 55.4932 72.4707 55.5908C72.4707 55.6234 72.4593 55.6624 72.4365 55.708L71.0449 59.8779C71.0156 59.9691 70.8984 60.0146 70.6934 60.0146H70.3955ZM75.2539 60.0488C74.5345 60.0488 73.999 59.8617 73.6475 59.4873C73.2992 59.1097 73.125 58.5335 73.125 57.7588C73.125 56.9906 73.2959 56.4079 73.6377 56.0107C73.9795 55.6104 74.4824 55.4102 75.1465 55.4102C75.7389 55.4102 76.1849 55.6022 76.4844 55.9863C76.7871 56.3704 76.9385 56.9336 76.9385 57.6758C76.9385 57.7083 76.9206 57.7539 76.8848 57.8125C76.8522 57.8678 76.8115 57.9183 76.7627 57.9639C76.7171 58.0062 76.6781 58.0273 76.6455 58.0273H73.9062C73.9421 58.5124 74.0658 58.8672 74.2773 59.0918C74.4922 59.3132 74.8145 59.4238 75.2441 59.4238C75.485 59.4238 75.6917 59.3945 75.8643 59.3359C76.04 59.2773 76.2093 59.2057 76.3721 59.1211C76.3883 59.1146 76.4128 59.1032 76.4453 59.0869C76.4779 59.0706 76.5007 59.0625 76.5137 59.0625C76.5495 59.0625 76.5902 59.0918 76.6357 59.1504C76.6846 59.2057 76.7253 59.2692 76.7578 59.3408C76.7936 59.4092 76.8115 59.4596 76.8115 59.4922C76.8115 59.5638 76.7399 59.6436 76.5967 59.7314C76.4535 59.8193 76.2614 59.8942 76.0205 59.9561C75.7829 60.0179 75.5273 60.0488 75.2539 60.0488ZM76.1621 57.4023C76.1621 56.4909 75.8154 56.0352 75.1221 56.0352C74.3766 56.0352 73.9714 56.4909 73.9062 57.4023H76.1621ZM79.165 60.0488C78.8753 60.0488 78.6165 59.9609 78.3887 59.7852C78.1608 59.6094 78.0469 59.2985 78.0469 58.8525V53.6621C78.0469 53.5352 78.1624 53.4717 78.3936 53.4717H78.4326C78.6605 53.4717 78.7744 53.5352 78.7744 53.6621V58.7842C78.7744 59.0218 78.8167 59.1878 78.9014 59.2822C78.986 59.3766 79.0999 59.4238 79.2432 59.4238C79.3506 59.4238 79.4352 59.4173 79.4971 59.4043C79.5589 59.3913 79.5996 59.3848 79.6191 59.3848C79.6712 59.3848 79.7135 59.4368 79.7461 59.541C79.7819 59.6452 79.7998 59.7282 79.7998 59.79C79.7998 59.9626 79.5882 60.0488 79.165 60.0488Z" fill="#C9C9C9"/>
</svg>
